<?xml version="1.0" encoding="UTF-8"?>
<!DOCTYPE svg PUBLIC "-//W3C//DTD SVG 1.1//EN" "http://www.w3.org/Graphics/SVG/1.1/DTD/svg11.dtd">
<!-- Creator: CorelDRAW -->
<svg xmlns="http://www.w3.org/2000/svg" xml:space="preserve" width="336px" height="48px" version="1.1" style="shape-rendering:geometricPrecision; text-rendering:geometricPrecision; image-rendering:optimizeQuality; fill-rule:evenodd; clip-rule:evenodd"
viewBox="0 0 154.21 22.12"
 xmlns:xlink="http://www.w3.org/1999/xlink">
 <defs>
  <style type="text/css">
   <![CDATA[
    .fil1 {fill:white}
    .fil0 {fill:#A9D046}
    .fil4 {fill:#2D5EA1}
    .fil5 {fill:#606163;fill-rule:nonzero}
    .fil6 {fill:#A9D046;fill-rule:nonzero}
    .fil2 {fill:#44C3EE;fill-rule:nonzero}
    .fil7 {fill:#4B4C4F;fill-rule:nonzero}
    .fil3 {fill:#4184C4;fill-rule:nonzero}
   ]]>
  </style>
 </defs>
 <g id="Imagenes">
  <metadata id="CorelCorpID_0Corel-Layer"/>
  <g id="_105553552255168">
   <g>
    <polygon class="fil0" points="4.9,1.26 7.35,2.68 9.8,4.09 9.8,6.92 9.8,9.75 7.35,11.17 4.9,12.58 2.45,11.17 0,9.75 0,6.92 0,4.09 2.45,2.68 "/>
    <polygon class="fil1" points="4.95,2.46 6.88,3.57 8.81,4.69 8.81,6.91 8.81,9.14 6.88,10.26 4.95,11.37 3.02,10.26 1.09,9.14 1.09,6.91 1.09,4.69 3.02,3.57 "/>
    <polygon class="fil2" points="4.89,3.35 1.8,5.13 4.89,6.93 7.97,5.13 "/>
    <polygon class="fil3" points="4.9,6.92 4.9,10.5 7.97,8.71 7.97,5.13 "/>
    <polygon class="fil4" points="1.8,5.13 1.8,8.71 4.9,10.5 4.9,6.92 "/>
   </g>
   <g>
    <path class="fil5" d="M60.1 16.16c0.04,0 0.08,0.01 0.11,0.03 0.03,0.02 0.04,0.06 0.05,0.11l0 0.32c0,0.04 -0.02,0.07 -0.04,0.1 -0.03,0.04 -0.06,0.05 -0.12,0.05l-1.32 0 0 3.94c0,0.04 -0.01,0.08 -0.03,0.11 -0.03,0.02 -0.06,0.04 -0.11,0.04l-0.32 0c-0.04,0 -0.07,-0.01 -0.1,-0.04 -0.03,-0.03 -0.05,-0.06 -0.05,-0.11l0 -3.94 -1.32 0c-0.04,0 -0.08,-0.01 -0.1,-0.04 -0.03,-0.02 -0.05,-0.06 -0.05,-0.11l0 -0.32c0,-0.05 0.02,-0.08 0.05,-0.11 0.02,-0.02 0.06,-0.03 0.1,-0.03l3.25 0zm3.53 4.23c-0.06,0.07 -0.12,0.14 -0.19,0.2 -0.07,0.06 -0.14,0.11 -0.23,0.15 -0.08,0.04 -0.17,0.07 -0.28,0.09 -0.11,0.02 -0.23,0.03 -0.37,0.03 -0.26,0 -0.49,-0.05 -0.68,-0.14 -0.2,-0.08 -0.37,-0.21 -0.5,-0.36 -0.14,-0.16 -0.24,-0.34 -0.31,-0.55 -0.07,-0.21 -0.1,-0.43 -0.1,-0.67l0 -2.15c0,-0.07 0.02,-0.13 0.06,-0.16 0.03,-0.04 0.08,-0.06 0.14,-0.06l0.23 0c0.08,0 0.13,0.02 0.15,0.05 0.02,0.03 0.03,0.09 0.03,0.16l0 2.16c0,0.13 0.02,0.26 0.06,0.39 0.03,0.13 0.09,0.25 0.17,0.36 0.08,0.1 0.18,0.19 0.31,0.26 0.13,0.07 0.29,0.1 0.48,0.1 0.12,0 0.25,-0.02 0.37,-0.06 0.12,-0.05 0.23,-0.11 0.33,-0.2 0.09,-0.08 0.17,-0.18 0.24,-0.31 0.06,-0.12 0.09,-0.26 0.09,-0.43l0 -2.34c0,-0.09 0.05,-0.14 0.14,-0.14l0.33 0c0.09,0 0.14,0.05 0.14,0.14l0 3.75c0,0.04 -0.01,0.07 -0.04,0.1 -0.02,0.02 -0.06,0.04 -0.1,0.04l-0.32 0c-0.05,0 -0.08,-0.02 -0.11,-0.04 -0.03,-0.03 -0.04,-0.06 -0.04,-0.1l0 -0.27zm4.12 0.33c0,0.09 -0.04,0.14 -0.14,0.14l-0.32 0c-0.1,0 -0.15,-0.05 -0.15,-0.14l0 -3.74c0,-0.04 0.01,-0.08 0.04,-0.1 0.03,-0.03 0.06,-0.04 0.1,-0.04l0.33 0c0.04,0 0.08,0.01 0.1,0.04 0.03,0.03 0.04,0.06 0.04,0.1l0 3.74zm0 -4.61c0,0.09 -0.04,0.14 -0.14,0.14l-0.32 0c-0.1,0 -0.15,-0.05 -0.15,-0.14l0 -0.33c0,-0.04 0.01,-0.08 0.04,-0.1 0.03,-0.03 0.06,-0.04 0.1,-0.04l0.33 0c0.04,0 0.08,0.01 0.1,0.04 0.03,0.03 0.04,0.06 0.04,0.1l0 0.33zm4.47 4.75c-0.09,0 -0.14,-0.05 -0.14,-0.14l0 -0.38c-0.18,0.18 -0.39,0.33 -0.63,0.43 -0.24,0.11 -0.5,0.16 -0.78,0.16 -0.19,0 -0.37,-0.02 -0.55,-0.07 -0.18,-0.05 -0.34,-0.12 -0.5,-0.21 -0.15,-0.09 -0.29,-0.2 -0.42,-0.33 -0.12,-0.13 -0.23,-0.27 -0.32,-0.42 -0.1,-0.15 -0.17,-0.32 -0.22,-0.5 -0.05,-0.17 -0.07,-0.35 -0.07,-0.54 0,-0.2 0.02,-0.38 0.07,-0.56 0.05,-0.17 0.12,-0.34 0.22,-0.49 0.09,-0.16 0.2,-0.3 0.32,-0.42 0.13,-0.13 0.27,-0.24 0.42,-0.33 0.16,-0.09 0.32,-0.17 0.5,-0.21 0.17,-0.05 0.36,-0.08 0.55,-0.08 0.28,0 0.54,0.05 0.78,0.16 0.24,0.11 0.45,0.25 0.63,0.44l0 -1.59c0,-0.03 0.02,-0.07 0.04,-0.09 0.03,-0.03 0.06,-0.05 0.11,-0.05l0.33 0c0.03,0 0.07,0.02 0.1,0.04 0.02,0.03 0.04,0.06 0.04,0.1l0 4.94c0,0.09 -0.05,0.14 -0.15,0.14l-0.33 0zm-0.11 -2c0,-0.2 -0.03,-0.39 -0.11,-0.57 -0.08,-0.18 -0.18,-0.34 -0.31,-0.48 -0.13,-0.14 -0.28,-0.25 -0.46,-0.33 -0.18,-0.08 -0.37,-0.13 -0.56,-0.13 -0.2,0 -0.39,0.05 -0.56,0.13 -0.18,0.08 -0.33,0.19 -0.46,0.33 -0.13,0.14 -0.23,0.3 -0.31,0.48 -0.07,0.18 -0.11,0.37 -0.11,0.57 0,0.2 0.04,0.39 0.11,0.57 0.08,0.17 0.18,0.33 0.31,0.47 0.13,0.13 0.28,0.24 0.46,0.32 0.17,0.08 0.36,0.12 0.56,0.12 0.19,0 0.38,-0.04 0.56,-0.12 0.18,-0.08 0.33,-0.19 0.46,-0.32 0.13,-0.14 0.23,-0.3 0.31,-0.47 0.08,-0.18 0.11,-0.37 0.11,-0.57zm4.35 1.08c0.02,-0.02 0.05,-0.03 0.07,-0.05 0.02,-0.01 0.04,-0.02 0.06,-0.02 0.04,0 0.07,0.02 0.1,0.06 0.04,0.05 0.07,0.1 0.1,0.13 0.03,0.04 0.05,0.07 0.06,0.09 0.02,0.02 0.03,0.04 0.04,0.05 0.01,0.01 0.02,0.03 0.03,0.04 0,0.01 0.01,0.03 0.01,0.05 0,0.02 -0.01,0.04 -0.03,0.07 -0.02,0.03 -0.05,0.06 -0.09,0.09 -0.09,0.08 -0.19,0.14 -0.29,0.2 -0.09,0.06 -0.2,0.11 -0.31,0.15 -0.1,0.04 -0.22,0.07 -0.34,0.1 -0.11,0.02 -0.24,0.03 -0.37,0.03 -0.19,0 -0.37,-0.02 -0.55,-0.07 -0.17,-0.05 -0.34,-0.12 -0.49,-0.21 -0.16,-0.1 -0.3,-0.21 -0.43,-0.33 -0.13,-0.13 -0.24,-0.27 -0.33,-0.42 -0.09,-0.16 -0.16,-0.32 -0.22,-0.5 -0.05,-0.18 -0.07,-0.36 -0.07,-0.55 0,-0.19 0.02,-0.37 0.07,-0.55 0.05,-0.18 0.12,-0.34 0.2,-0.5 0.09,-0.15 0.2,-0.29 0.32,-0.42 0.13,-0.12 0.27,-0.23 0.42,-0.32 0.16,-0.09 0.32,-0.17 0.5,-0.21 0.18,-0.05 0.38,-0.08 0.58,-0.08 0.15,0 0.31,0.02 0.47,0.06 0.15,0.03 0.3,0.08 0.45,0.15 0.14,0.07 0.28,0.16 0.4,0.26 0.13,0.1 0.24,0.21 0.34,0.35 0.13,0.18 0.23,0.38 0.3,0.62 0.06,0.23 0.09,0.5 0.09,0.8 0,0.1 -0.05,0.15 -0.14,0.15l-3.34 0c0.04,0.17 0.1,0.32 0.19,0.46 0.09,0.15 0.2,0.27 0.33,0.38 0.12,0.11 0.26,0.19 0.41,0.25 0.16,0.06 0.32,0.09 0.48,0.09 0.12,0 0.22,-0.01 0.32,-0.03 0.09,-0.03 0.18,-0.06 0.26,-0.09 0.07,-0.04 0.14,-0.08 0.21,-0.13 0.06,-0.05 0.13,-0.1 0.19,-0.15l0 0zm-1.73 -2.35c-0.16,0.11 -0.3,0.25 -0.42,0.41 -0.11,0.16 -0.19,0.35 -0.23,0.54l2.86 0c-0.02,-0.17 -0.08,-0.33 -0.16,-0.48 -0.09,-0.14 -0.2,-0.26 -0.32,-0.36 -0.13,-0.11 -0.28,-0.18 -0.44,-0.24 -0.16,-0.06 -0.33,-0.08 -0.5,-0.08 -0.14,0 -0.27,0.01 -0.41,0.05 -0.13,0.04 -0.26,0.09 -0.38,0.16zm6.98 2.73c-0.19,0.19 -0.4,0.34 -0.64,0.44 -0.24,0.11 -0.5,0.16 -0.78,0.16 -0.19,0 -0.37,-0.02 -0.55,-0.07 -0.17,-0.05 -0.34,-0.12 -0.49,-0.21 -0.16,-0.1 -0.3,-0.2 -0.42,-0.33 -0.13,-0.13 -0.24,-0.27 -0.33,-0.42 -0.09,-0.16 -0.16,-0.33 -0.21,-0.5 -0.05,-0.18 -0.08,-0.36 -0.08,-0.55 0,-0.19 0.03,-0.37 0.08,-0.55 0.05,-0.18 0.12,-0.34 0.21,-0.5 0.09,-0.15 0.2,-0.29 0.33,-0.42 0.12,-0.12 0.26,-0.23 0.42,-0.32 0.15,-0.09 0.32,-0.16 0.49,-0.21 0.18,-0.05 0.36,-0.08 0.55,-0.08 0.28,0 0.54,0.05 0.78,0.16 0.24,0.11 0.45,0.25 0.64,0.44l0 -0.39c0,-0.09 0.04,-0.13 0.13,-0.13l0.33 0c0.1,0 0.15,0.04 0.15,0.13l0 3.75c0,0.04 -0.01,0.08 -0.04,0.1 -0.03,0.03 -0.06,0.04 -0.1,0.04l-0.33 0c-0.04,0 -0.08,-0.01 -0.1,-0.04 -0.03,-0.03 -0.04,-0.06 -0.04,-0.1l0 -0.4zm0.03 -1.48c0,-0.2 -0.04,-0.39 -0.12,-0.57 -0.07,-0.18 -0.18,-0.34 -0.31,-0.47 -0.13,-0.14 -0.28,-0.25 -0.46,-0.33 -0.17,-0.08 -0.36,-0.12 -0.56,-0.12 -0.2,0 -0.38,0.04 -0.56,0.12 -0.17,0.08 -0.32,0.19 -0.45,0.33 -0.13,0.13 -0.24,0.29 -0.31,0.47 -0.08,0.18 -0.11,0.37 -0.11,0.57 0,0.2 0.03,0.38 0.11,0.57 0.07,0.18 0.18,0.34 0.31,0.48 0.13,0.13 0.28,0.24 0.45,0.33 0.18,0.08 0.36,0.12 0.56,0.12 0.2,0 0.39,-0.04 0.56,-0.12 0.18,-0.09 0.33,-0.2 0.46,-0.33 0.13,-0.14 0.24,-0.3 0.31,-0.48 0.08,-0.19 0.12,-0.37 0.12,-0.57zm2.1 2.02c0,0.17 -0.03,0.32 -0.1,0.46 -0.07,0.13 -0.15,0.22 -0.26,0.28l-0.04 0c-0.03,0 -0.04,0 -0.06,-0.02l-0.12 -0.12c-0.02,-0.01 -0.02,-0.04 -0.02,-0.07 0,-0.02 0,-0.04 0.02,-0.06 0.02,-0.02 0.04,-0.04 0.06,-0.07 0.02,-0.03 0.05,-0.06 0.06,-0.1 0.02,-0.04 0.03,-0.08 0.03,-0.13l0 -0.1c0,-0.02 -0.01,-0.04 -0.02,-0.05 -0.01,-0.01 -0.02,-0.01 -0.04,-0.02 -0.07,0 -0.11,-0.04 -0.12,-0.11l0 -0.36c0,-0.04 0.01,-0.07 0.04,-0.1 0.03,-0.02 0.06,-0.04 0.1,-0.04l0.32 0c0.05,0 0.09,0.02 0.11,0.04 0.03,0.03 0.04,0.06 0.04,0.1l0 0.47zm5.91 -0.92c0.01,-0.02 0.04,-0.03 0.06,-0.05 0.02,-0.01 0.04,-0.02 0.07,-0.02 0.03,0 0.06,0.02 0.09,0.06 0.04,0.05 0.07,0.1 0.1,0.13 0.03,0.04 0.05,0.07 0.07,0.09 0.01,0.02 0.02,0.04 0.03,0.05 0.01,0.01 0.02,0.03 0.03,0.04 0,0.01 0.01,0.03 0.01,0.05 0,0.02 -0.01,0.04 -0.03,0.07 -0.02,0.03 -0.05,0.06 -0.09,0.09 -0.09,0.08 -0.19,0.14 -0.29,0.2 -0.09,0.06 -0.2,0.11 -0.3,0.15 -0.11,0.04 -0.22,0.07 -0.34,0.1 -0.12,0.02 -0.25,0.03 -0.38,0.03 -0.19,0 -0.37,-0.02 -0.55,-0.07 -0.17,-0.05 -0.34,-0.12 -0.49,-0.21 -0.16,-0.1 -0.3,-0.21 -0.43,-0.33 -0.13,-0.13 -0.24,-0.27 -0.33,-0.42 -0.09,-0.16 -0.16,-0.32 -0.21,-0.5 -0.05,-0.18 -0.08,-0.36 -0.08,-0.55 0,-0.19 0.02,-0.37 0.07,-0.55 0.05,-0.18 0.12,-0.34 0.2,-0.5 0.09,-0.15 0.2,-0.29 0.32,-0.42 0.13,-0.12 0.27,-0.23 0.42,-0.32 0.16,-0.09 0.33,-0.17 0.51,-0.21 0.18,-0.05 0.37,-0.08 0.57,-0.08 0.16,0 0.31,0.02 0.47,0.06 0.15,0.03 0.31,0.08 0.45,0.15 0.14,0.07 0.28,0.16 0.4,0.26 0.13,0.1 0.24,0.21 0.34,0.35 0.13,0.18 0.23,0.38 0.3,0.62 0.07,0.23 0.1,0.5 0.09,0.8 0,0.1 -0.04,0.15 -0.14,0.15l-3.33 0c0.03,0.17 0.09,0.32 0.18,0.46 0.09,0.15 0.2,0.27 0.33,0.38 0.12,0.11 0.26,0.19 0.42,0.25 0.15,0.06 0.31,0.09 0.47,0.09 0.12,0 0.23,-0.01 0.32,-0.03 0.09,-0.03 0.18,-0.06 0.26,-0.09 0.07,-0.04 0.14,-0.08 0.21,-0.13 0.07,-0.05 0.13,-0.1 0.19,-0.15l0.01 0zm-1.74 -2.35c-0.16,0.11 -0.3,0.25 -0.41,0.41 -0.12,0.16 -0.2,0.35 -0.24,0.54l2.86 0c-0.02,-0.17 -0.08,-0.33 -0.16,-0.48 -0.09,-0.14 -0.19,-0.26 -0.32,-0.36 -0.13,-0.11 -0.28,-0.18 -0.44,-0.24 -0.16,-0.06 -0.33,-0.08 -0.5,-0.08 -0.14,0 -0.27,0.01 -0.41,0.05 -0.13,0.04 -0.26,0.09 -0.38,0.16zm4.29 -0.22c0.05,-0.07 0.12,-0.15 0.19,-0.22 0.08,-0.07 0.16,-0.13 0.25,-0.19 0.1,-0.05 0.2,-0.1 0.31,-0.13 0.11,-0.04 0.24,-0.06 0.38,-0.06 0.26,0 0.48,0.05 0.68,0.14 0.2,0.09 0.37,0.21 0.5,0.37 0.14,0.15 0.24,0.33 0.31,0.54 0.07,0.21 0.1,0.44 0.1,0.67l0 2.15c0,0.08 -0.02,0.13 -0.06,0.17 -0.03,0.03 -0.08,0.05 -0.14,0.05l-0.23 0c-0.08,0 -0.13,-0.02 -0.15,-0.05 -0.02,-0.03 -0.04,-0.08 -0.04,-0.16l0 -2.16c0,-0.12 -0.01,-0.25 -0.05,-0.38 -0.03,-0.14 -0.09,-0.26 -0.17,-0.36 -0.08,-0.11 -0.18,-0.2 -0.31,-0.27 -0.13,-0.06 -0.3,-0.1 -0.49,-0.1 -0.12,0 -0.24,0.02 -0.37,0.07 -0.13,0.04 -0.25,0.1 -0.35,0.19 -0.11,0.08 -0.19,0.19 -0.26,0.31 -0.07,0.13 -0.1,0.27 -0.1,0.43l0 2.34c0,0.09 -0.05,0.14 -0.14,0.14l-0.33 0c-0.1,0 -0.15,-0.05 -0.15,-0.14l0 -3.74c0,-0.04 0.01,-0.08 0.04,-0.1 0.03,-0.03 0.06,-0.04 0.1,-0.04l0.33 0c0.04,0 0.08,0.01 0.11,0.04 0.02,0.03 0.04,0.06 0.04,0.1l0 0.39z"/>
    <path class="fil6" d="M98.62 19.94c0.02,-0.01 0.03,-0.02 0.05,-0.04 0.02,-0.01 0.04,-0.02 0.06,-0.03 0.02,0 0.04,0 0.06,0 0.02,0.01 0.04,0.03 0.06,0.06 0.04,0.05 0.08,0.1 0.1,0.13 0.03,0.04 0.05,0.07 0.07,0.09 0.01,0.02 0.03,0.04 0.04,0.05 0.01,0.02 0.02,0.04 0.02,0.05 0.01,0.02 0.01,0.04 0.01,0.06 -0.01,0.02 -0.02,0.04 -0.03,0.06 -0.02,0.03 -0.05,0.05 -0.09,0.08 -0.09,0.08 -0.18,0.14 -0.28,0.2 -0.1,0.06 -0.2,0.11 -0.31,0.15 -0.11,0.04 -0.22,0.07 -0.34,0.1 -0.12,0.02 -0.25,0.03 -0.38,0.03 -0.19,0 -0.37,-0.02 -0.54,-0.07 -0.18,-0.05 -0.34,-0.12 -0.5,-0.21 -0.16,-0.1 -0.3,-0.21 -0.42,-0.33 -0.13,-0.13 -0.24,-0.27 -0.34,-0.42 -0.09,-0.16 -0.16,-0.32 -0.21,-0.5 -0.05,-0.18 -0.08,-0.36 -0.08,-0.55 0,-0.19 0.03,-0.37 0.08,-0.55 0.05,-0.17 0.12,-0.34 0.21,-0.49 0.1,-0.16 0.21,-0.3 0.34,-0.42 0.12,-0.13 0.26,-0.24 0.42,-0.33 0.16,-0.09 0.32,-0.17 0.5,-0.21 0.17,-0.05 0.35,-0.08 0.54,-0.08 0.12,0 0.24,0.01 0.35,0.03 0.12,0.03 0.23,0.06 0.34,0.1 0.11,0.04 0.21,0.08 0.31,0.13 0.1,0.06 0.18,0.11 0.26,0.18 0.01,0.01 0.03,0.02 0.05,0.04 0.02,0.01 0.04,0.03 0.05,0.05 0.01,0.02 0.02,0.04 0.03,0.07 0,0.02 0,0.05 -0.02,0.08l-0.23 0.3c-0.05,0.07 -0.12,0.07 -0.19,0 -0.06,-0.06 -0.12,-0.12 -0.2,-0.16 -0.07,-0.05 -0.15,-0.09 -0.23,-0.13 -0.09,-0.03 -0.18,-0.06 -0.27,-0.08 -0.09,-0.02 -0.18,-0.03 -0.27,-0.03 -0.18,0 -0.36,0.04 -0.53,0.12 -0.18,0.08 -0.33,0.19 -0.46,0.33 -0.14,0.14 -0.24,0.3 -0.32,0.48 -0.08,0.18 -0.12,0.37 -0.12,0.57 0,0.2 0.04,0.4 0.12,0.58 0.07,0.18 0.18,0.34 0.31,0.47 0.14,0.14 0.29,0.24 0.46,0.32 0.18,0.08 0.36,0.12 0.55,0.12 0.11,0 0.22,-0.01 0.31,-0.03 0.1,-0.03 0.18,-0.06 0.26,-0.09 0.08,-0.04 0.15,-0.08 0.21,-0.13 0.07,-0.05 0.13,-0.1 0.19,-0.15zm4.52 0.38c-0.18,0.19 -0.39,0.34 -0.63,0.44 -0.24,0.11 -0.5,0.16 -0.78,0.16 -0.19,0 -0.37,-0.02 -0.55,-0.07 -0.18,-0.05 -0.34,-0.12 -0.5,-0.21 -0.15,-0.1 -0.29,-0.2 -0.42,-0.33 -0.12,-0.13 -0.23,-0.27 -0.32,-0.42 -0.1,-0.16 -0.17,-0.33 -0.22,-0.5 -0.05,-0.18 -0.07,-0.36 -0.07,-0.55 0,-0.19 0.02,-0.37 0.07,-0.55 0.05,-0.18 0.12,-0.34 0.22,-0.5 0.09,-0.15 0.2,-0.29 0.32,-0.42 0.13,-0.12 0.27,-0.23 0.42,-0.32 0.16,-0.09 0.32,-0.16 0.5,-0.21 0.17,-0.05 0.36,-0.08 0.55,-0.08 0.28,0 0.54,0.05 0.78,0.16 0.24,0.11 0.45,0.25 0.63,0.44l0 -0.39c0,-0.09 0.05,-0.13 0.14,-0.13l0.33 0c0.1,0 0.15,0.04 0.15,0.13l0 3.75c0,0.04 -0.02,0.08 -0.05,0.1 -0.02,0.03 -0.06,0.04 -0.09,0.04l-0.33 0c-0.05,0 -0.08,-0.01 -0.11,-0.04 -0.03,-0.03 -0.04,-0.06 -0.04,-0.1l0 -0.4zm0.03 -1.48c0,-0.2 -0.04,-0.39 -0.11,-0.57 -0.08,-0.18 -0.18,-0.34 -0.31,-0.47 -0.13,-0.14 -0.29,-0.25 -0.46,-0.33 -0.18,-0.08 -0.37,-0.12 -0.56,-0.12 -0.2,0 -0.39,0.04 -0.56,0.12 -0.18,0.08 -0.33,0.19 -0.46,0.33 -0.13,0.13 -0.23,0.29 -0.31,0.47 -0.07,0.18 -0.11,0.37 -0.11,0.57 0,0.2 0.04,0.38 0.11,0.57 0.08,0.18 0.18,0.34 0.31,0.48 0.13,0.13 0.28,0.24 0.46,0.33 0.17,0.08 0.36,0.12 0.56,0.12 0.19,0 0.38,-0.04 0.56,-0.12 0.17,-0.09 0.33,-0.2 0.46,-0.33 0.13,-0.14 0.23,-0.3 0.31,-0.48 0.07,-0.19 0.11,-0.37 0.11,-0.57zm1.06 3.28c-0.04,0 -0.08,-0.01 -0.11,-0.04 -0.03,-0.03 -0.05,-0.07 -0.05,-0.12l0 -0.21c0,-0.05 0.02,-0.09 0.05,-0.12 0.03,-0.03 0.07,-0.05 0.12,-0.05l0.02 0c0.06,0 0.11,-0.02 0.16,-0.05 0.04,-0.03 0.09,-0.07 0.12,-0.12 0.03,-0.05 0.06,-0.1 0.08,-0.16 0.02,-0.06 0.03,-0.12 0.03,-0.17l0 -4.07c0,-0.06 0.02,-0.1 0.05,-0.13 0.04,-0.03 0.08,-0.04 0.13,-0.04l0.3 0c0.06,0 0.1,0.01 0.13,0.05 0.03,0.03 0.04,0.07 0.04,0.12l0 4.07c0,0.14 -0.03,0.27 -0.09,0.4 -0.06,0.13 -0.14,0.24 -0.24,0.33 -0.09,0.1 -0.21,0.17 -0.34,0.23 -0.13,0.05 -0.26,0.08 -0.4,0.08zm0.42 -6.34c0,-0.09 0.05,-0.13 0.13,-0.14l0.37 0c0.02,0 0.05,0.01 0.07,0.01 0.01,0 0.03,0.01 0.04,0.02 0.01,0.01 0.02,0.03 0.02,0.05 0.01,0.02 0.01,0.05 0.01,0.09l0 0.26c0,0.01 0,0.03 0,0.05 -0.01,0.02 -0.01,0.04 -0.02,0.06 -0.01,0.02 -0.03,0.04 -0.05,0.05 -0.01,0.01 -0.04,0.02 -0.07,0.02l-0.37 0c-0.09,-0.01 -0.13,-0.07 -0.13,-0.17l0 -0.3zm4.95 4.54c-0.18,0.19 -0.39,0.34 -0.63,0.44 -0.24,0.11 -0.5,0.16 -0.78,0.16 -0.19,0 -0.37,-0.02 -0.55,-0.07 -0.17,-0.05 -0.34,-0.12 -0.49,-0.21 -0.16,-0.1 -0.3,-0.2 -0.42,-0.33 -0.13,-0.13 -0.24,-0.27 -0.33,-0.42 -0.09,-0.16 -0.16,-0.33 -0.21,-0.5 -0.05,-0.18 -0.08,-0.36 -0.08,-0.55 0,-0.19 0.03,-0.37 0.08,-0.55 0.05,-0.18 0.12,-0.34 0.21,-0.5 0.09,-0.15 0.2,-0.29 0.33,-0.42 0.12,-0.12 0.26,-0.23 0.42,-0.32 0.15,-0.09 0.32,-0.16 0.49,-0.21 0.18,-0.05 0.36,-0.08 0.55,-0.08 0.28,0 0.54,0.05 0.78,0.16 0.24,0.11 0.45,0.25 0.63,0.44l0 -0.39c0,-0.09 0.05,-0.13 0.14,-0.13l0.33 0c0.1,0 0.15,0.04 0.15,0.13l0 3.75c0,0.04 -0.01,0.08 -0.04,0.1 -0.03,0.03 -0.06,0.04 -0.1,0.04l-0.33 0c-0.04,0 -0.08,-0.01 -0.11,-0.04 -0.02,-0.03 -0.04,-0.06 -0.04,-0.1l0 -0.4zm0.04 -1.48c0,-0.2 -0.04,-0.39 -0.12,-0.57 -0.07,-0.18 -0.18,-0.34 -0.31,-0.47 -0.13,-0.14 -0.28,-0.25 -0.46,-0.33 -0.17,-0.08 -0.36,-0.12 -0.56,-0.12 -0.2,0 -0.39,0.04 -0.56,0.12 -0.17,0.08 -0.33,0.19 -0.46,0.33 -0.13,0.13 -0.23,0.29 -0.3,0.47 -0.08,0.18 -0.12,0.37 -0.12,0.57 0,0.2 0.04,0.38 0.12,0.57 0.07,0.18 0.17,0.34 0.3,0.48 0.13,0.13 0.29,0.24 0.46,0.33 0.17,0.08 0.36,0.12 0.56,0.12 0.2,0 0.39,-0.04 0.56,-0.12 0.18,-0.09 0.33,-0.2 0.46,-0.33 0.13,-0.14 0.24,-0.3 0.31,-0.48 0.08,-0.19 0.12,-0.37 0.12,-0.57z"/>
    <path class="fil7" d="M118.28 8.74c0,0.75 -0.26,1.35 -0.8,1.81 -0.51,0.43 -1.15,0.64 -1.91,0.64l-6.05 0 0 -1.38 6.05 0c0.38,0 0.71,-0.09 0.98,-0.26 0.32,-0.21 0.48,-0.49 0.48,-0.85 0,-0.35 -0.16,-0.63 -0.49,-0.82 -0.27,-0.16 -0.59,-0.24 -0.97,-0.24l-3.74 0c-0.69,0 -1.27,-0.19 -1.73,-0.57 -0.5,-0.41 -0.75,-0.95 -0.75,-1.63 0,-0.66 0.25,-1.2 0.75,-1.61 0.46,-0.38 1.04,-0.57 1.73,-0.57l5.98 0 0 1.38 -5.98 0c-0.27,0 -0.49,0.07 -0.68,0.22 -0.18,0.15 -0.27,0.35 -0.27,0.59 0,0.26 0.09,0.46 0.27,0.6 0.19,0.13 0.41,0.2 0.68,0.2l3.74 0c0.76,0 1.4,0.23 1.91,0.67 0.54,0.46 0.8,1.07 0.8,1.82z"/>
    <path class="fil7" d="M108.66 7.14c0,1.17 -0.38,2.13 -1.13,2.9 -0.75,0.77 -1.71,1.15 -2.87,1.15l-2.22 0c-1.15,0 -2.1,-0.38 -2.86,-1.15 -0.75,-0.77 -1.13,-1.73 -1.13,-2.9 0,-1.16 0.37,-2.1 1.12,-2.81 0.75,-0.72 1.71,-1.07 2.87,-1.07l2.22 0c1.18,0 2.14,0.35 2.88,1.07 0.75,0.71 1.12,1.65 1.12,2.81zm-1.37 0.11c0,-0.76 -0.25,-1.39 -0.74,-1.88 -0.49,-0.49 -1.12,-0.73 -1.89,-0.73l-2.22 0c-0.75,0 -1.38,0.24 -1.87,0.73 -0.49,0.49 -0.74,1.12 -0.74,1.88 0,0.76 0.25,1.38 0.74,1.85 0.49,0.47 1.12,0.71 1.87,0.71l2.22 0c0.77,0 1.4,-0.24 1.89,-0.71 0.49,-0.47 0.74,-1.09 0.74,-1.85z"/>
    <path class="fil7" d="M97.32 11.19l-4.48 0c-1.15,0 -2.11,-0.38 -2.86,-1.15 -0.76,-0.77 -1.13,-1.73 -1.13,-2.9 0,-1.16 0.37,-2.1 1.12,-2.81 0.74,-0.72 1.7,-1.07 2.87,-1.07l4.48 0 0 1.38 -4.48 0c-0.76,0 -1.38,0.24 -1.88,0.73 -0.49,0.49 -0.73,1.12 -0.73,1.88 0,0.76 0.24,1.38 0.73,1.85 0.5,0.47 1.12,0.71 1.88,0.71l4.48 0 0 1.38z"/>
    <polygon class="fil7" points="87.16,11.19 85.78,11.19 85.78,3.26 87.16,3.26 "/>
    <polygon class="fil7" points="84.34,4.64 78.87,4.64 78.87,11.19 77.49,11.19 77.49,3.26 84.34,3.26 "/>
    <polygon class="fil7" points="83.98,7.86 79.45,7.86 79.45,6.48 83.98,6.48 "/>
    <path class="fil7" d="M76.83 11.19l-1.78 -0.01 -1.34 -2.22 -3.76 0 0.84 -1.37 2.1 0 -1.38 -2.29 -3.58 5.88 -1.78 0 4.31 -7.17c0.11,-0.18 0.26,-0.35 0.45,-0.51 0.24,-0.18 0.45,-0.26 0.63,-0.26 0.2,0 0.41,0.08 0.63,0.25 0.18,0.15 0.34,0.32 0.45,0.52l4.21 7.18z"/>
    <path class="fil7" d="M65.35 11.19l-2.04 0 -2.22 -2.23 -2.98 0 0 -1.37 3.71 0c0.51,0 0.94,-0.11 1.29,-0.34 0.4,-0.26 0.59,-0.64 0.59,-1.12 0,-0.99 -0.62,-1.49 -1.88,-1.49l-4.53 0 0 6.55 -1.38 0 0 -7.93 5.69 0c1.02,0 1.85,0.22 2.47,0.66 0.72,0.5 1.08,1.24 1.08,2.22 0,0.66 -0.2,1.24 -0.62,1.72 -0.39,0.45 -0.92,0.76 -1.58,0.94l2.4 2.39z"/>
    <path class="fil7" d="M54.8 11.19l-5.04 0c-1.16,0 -2.11,-0.38 -2.87,-1.15 -0.75,-0.77 -1.13,-1.73 -1.13,-2.9 0,-1.16 0.37,-2.1 1.12,-2.81 0.75,-0.72 1.71,-1.07 2.88,-1.07l4.48 0 0 1.38 -4.48 0c-0.76,0 -1.39,0.24 -1.88,0.73 -0.49,0.49 -0.74,1.12 -0.74,1.88 0,0.76 0.25,1.38 0.74,1.85 0.49,0.47 1.12,0.71 1.88,0.71l3.65 0 0 -1.73 -3.76 0 0 -1.27 5.15 0 0 4.38z"/>
    <path class="fil7" d="M44.81 7.14c0,1.17 -0.38,2.13 -1.13,2.9 -0.75,0.77 -1.71,1.15 -2.87,1.15l-2.21 0c-1.16,0 -2.11,-0.38 -2.87,-1.15 -0.75,-0.77 -1.13,-1.73 -1.13,-2.9 0,-1.16 0.37,-2.1 1.12,-2.81 0.75,-0.72 1.71,-1.07 2.88,-1.07l2.21 0c1.18,0 2.14,0.35 2.88,1.07 0.75,0.71 1.12,1.65 1.12,2.81zm-1.37 0.11c0,-0.76 -0.25,-1.39 -0.74,-1.88 -0.49,-0.49 -1.12,-0.73 -1.89,-0.73l-2.21 0c-0.76,0 -1.39,0.24 -1.88,0.73 -0.49,0.49 -0.74,1.12 -0.74,1.88 0,0.76 0.25,1.38 0.74,1.85 0.49,0.47 1.12,0.71 1.88,0.71l2.21 0c0.77,0 1.4,-0.24 1.89,-0.71 0.49,-0.47 0.74,-1.09 0.74,-1.85z"/>
    <path class="fil7" d="M33.51 11.19l-2.04 0 -2.22 -2.23 -2.99 0 0 -1.37 3.72 0c0.51,0 0.94,-0.11 1.29,-0.34 0.39,-0.26 0.59,-0.64 0.59,-1.12 0,-0.99 -0.63,-1.49 -1.88,-1.49l-4.53 0 0 6.55 -1.38 0 0 -7.93 5.69 0c1.02,0 1.84,0.22 2.47,0.66 0.72,0.5 1.08,1.24 1.08,2.22 0,0.66 -0.21,1.24 -0.63,1.72 -0.38,0.45 -0.91,0.76 -1.57,0.94l2.4 2.39z"/>
    <path class="fil7" d="M17.89 8.91l-2.98 0 0 -1.37 3.71 0c0.51,0 0.94,-0.11 1.29,-0.34 0.4,-0.26 0.59,-0.63 0.59,-1.12 0,-0.99 -0.62,-1.49 -1.88,-1.49l-4.53 0 0 6.55 -1.38 0 0 -7.93 5.69 0c1.02,0 1.85,0.22 2.48,0.66 0.72,0.5 1.08,1.24 1.08,2.22 0,0.67 -0.21,1.24 -0.63,1.72 -0.39,0.45 -0.91,0.76 -1.58,0.94l-1.86 0.16z"/>
    <polygon class="fil7" points="70.92,1.85 72.92,2.27 75.55,0.54 73.77,0 "/>
    <path class="fil3" d="M132.77 8.76c0,0.75 -0.27,1.36 -0.8,1.81 -0.51,0.43 -1.15,0.64 -1.92,0.64l-6.05 0 0 -1.38 6.05 0c0.38,0 0.71,-0.09 0.99,-0.26 0.32,-0.2 0.48,-0.49 0.48,-0.84 0,-0.36 -0.17,-0.63 -0.49,-0.83 -0.27,-0.16 -0.6,-0.24 -0.98,-0.24l-3.74 0c-0.68,0 -1.26,-0.19 -1.73,-0.57 -0.49,-0.41 -0.74,-0.95 -0.74,-1.63 0,-0.66 0.25,-1.2 0.74,-1.61 0.47,-0.38 1.05,-0.57 1.73,-0.57l5.98 0 0 1.38 -5.98 0c-0.26,0 -0.48,0.08 -0.67,0.22 -0.19,0.15 -0.28,0.35 -0.28,0.6 0,0.25 0.09,0.45 0.28,0.59 0.19,0.14 0.41,0.21 0.67,0.21l3.74 0c0.77,0 1.41,0.22 1.92,0.66 0.53,0.46 0.8,1.07 0.8,1.82z"/>
    <path class="fil3" d="M143.96 11.23l-1.78 -0.01 -1.33 -2.22 -3.77 0 0.84 -1.37 2.1 0 -1.38 -2.29 -3.58 5.88 -1.77 0 4.3 -7.17c0.11,-0.19 0.26,-0.36 0.46,-0.51 0.23,-0.18 0.44,-0.27 0.62,-0.27 0.21,0 0.41,0.09 0.63,0.26 0.19,0.14 0.34,0.32 0.45,0.52l4.21 7.18z"/>
    <path class="fil3" d="M154.21 8.76c0,0.76 -0.27,1.36 -0.8,1.82 -0.51,0.42 -1.15,0.64 -1.92,0.64l-6.05 0 0 -1.39 6.05 0c0.38,0 0.71,-0.08 0.99,-0.25 0.32,-0.21 0.48,-0.49 0.48,-0.85 0,-0.36 -0.17,-0.63 -0.49,-0.82 -0.27,-0.17 -0.6,-0.25 -0.98,-0.25l-3.74 0c-0.68,0 -1.26,-0.19 -1.73,-0.57 -0.49,-0.41 -0.74,-0.95 -0.74,-1.62 0,-0.67 0.25,-1.21 0.74,-1.62 0.47,-0.38 1.05,-0.57 1.73,-0.57l5.99 0 0 1.39 -5.99 0c-0.26,0 -0.48,0.07 -0.67,0.22 -0.18,0.14 -0.28,0.34 -0.28,0.59 0,0.25 0.1,0.45 0.28,0.59 0.19,0.14 0.41,0.21 0.67,0.21l3.74 0c0.77,0 1.41,0.22 1.92,0.66 0.53,0.47 0.8,1.07 0.8,1.82z"/>
   </g>
  </g>
 </g>
</svg>
